<svg id="Capa_1" enable-background="new 0 0 511 511" height="512" viewBox="0 0 511 511" width="512" xmlns="http://www.w3.org/2000/svg"><g><path d="m300.5 360v91l-45 11.064-22.5-57.064 22.5-45z" fill="#5f55ae"/><path d="m255.5 360v102.064l-45-11.064v-91z" fill="#918edd"/><path d="m510.5 315v19.15c0 30.8-25.05 55.85-55.85 55.85h-199.15l-12.26-37.5 12.26-37.5z" fill="#b3d1d6"/><path d="m255.5 315v75h-199.15c-30.8 0-55.85-25.05-55.85-55.85v-19.15z" fill="#dceaec"/><path d="m510.5 0v315h-255l-30-125.741 30-189.259z" fill="#002659"/><path d="m.5 0h255v315h-255z" fill="#39326c"/><path d="m376.5 496.93v14.07h-121l-22.5-30 22.5-30h75.07c25.33 0 45.93 20.6 45.93 45.93z" fill="#b3d1d6"/><path d="m255.5 451v60h-119v-14.07c0-25.33 20.6-45.93 45.93-45.93z" fill="#dceaec"/><g fill="#ffd322"><path d="m132.467 154.246 21.213-21.213 21.214 21.213 21.212-21.213-21.213-21.213 21.213-21.214-21.212-21.212-21.214 21.213-21.213-21.213-21.213 21.212 21.213 21.214-21.213 21.213z"/><path d="m341.106 154.246 21.214-21.213 21.213 21.213 21.213-21.213-21.213-21.213 21.213-21.214-21.213-21.212-21.213 21.213-21.214-21.213-21.212 21.212 21.213 21.214-21.213 21.213z"/><path d="m369.581 215.456c-33.698-23.241-73.146-35.524-114.081-35.524s-80.383 12.283-114.08 35.523l-39.436 27.196 17.031 24.697 39.437-27.197c58.046-40.033 136.047-40.036 194.097.001l39.436 27.196 17.031-24.697z"/></g></g></svg>