<svg id="Capa_1" enable-background="new 0 0 512 512" height="512" viewBox="0 0 512 512" width="512" xmlns="http://www.w3.org/2000/svg"><g><g><g><path d="m327.5 474.5h-143l30-77h83z" fill="#335e80"/><path d="m297.5 397.5h-30l30 77h30z" fill="#2e5973"/><g><path d="m474.5 397.5h-437c-16.569 0-30-13.431-30-30v-280c0-16.569 13.431-30 30-30h437c16.569 0 30 13.431 30 30v280c0 16.569-13.431 30-30 30z" fill="#3d6d93"/><path d="m474.5 57.5h-30c16.569 0 30 13.431 30 30v280c0 16.569-13.431 30-30 30h30c16.569 0 30-13.431 30-30v-280c0-16.569-13.431-30-30-30z" fill="#335e80"/><path d="m42.5 355.5v-256c0-3.866 3.134-7 7-7h413c3.866 0 7 3.134 7 7v256c0 3.866-3.134 7-7 7h-413c-3.866 0-7-3.134-7-7z" fill="#eaf6ff"/><path d="m462.5 92.5h-30c3.866 0 7 3.134 7 7v256c0 3.866-3.134 7-7 7h30c3.866 0 7-3.134 7-7v-256c0-3.866-3.134-7-7-7z" fill="#d8ecfe"/></g><path d="m343.148 504.5h-174.296c-3.866 0-7-3.134-7-7v-31c0-3.866 3.134-7 7-7h174.296c3.866 0 7 3.134 7 7v31c0 3.866-3.134 7-7 7z" fill="#3d6d93"/><path d="m343.148 459.5h-30c3.866 0 7 3.134 7 7v31c0 3.866-3.134 7-7 7h30c3.866 0 7-3.134 7-7v-31c0-3.866-3.134-7-7-7z" fill="#335e80"/></g><g><circle cx="256" cy="86" fill="#ffe179" r="78.5"/></g><path d="m256 7.5c-5.132 0-10.143.508-15 1.448 36.177 7.002 63.5 38.829 63.5 77.052s-27.323 70.049-63.5 77.052c4.857.94 9.868 1.448 15 1.448 43.354 0 78.5-35.146 78.5-78.5s-35.146-78.5-78.5-78.5z" fill="#fbd268"/></g><path d="m372.627 390h-335.127c-12.406 0-22.5-10.094-22.5-22.5v-280c0-12.406 10.094-22.5 22.5-22.5h42.703c4.143 0 7.5-3.357 7.5-7.5s-3.357-7.5-7.5-7.5h-42.703c-20.678 0-37.5 16.822-37.5 37.5v280c0 20.678 16.822 37.5 37.5 37.5h166.028l-18.315 47h-16.362c-7.995 0-14.5 6.505-14.5 14.5v31c0 7.995 6.505 14.5 14.5 14.5h174.297c7.995 0 14.5-6.505 14.5-14.5v-31c0-7.995-6.505-14.5-14.5-14.5h-16.362l-18.315-47h64.155c4.143 0 7.5-3.357 7.5-7.5s-3.356-7.5-7.499-7.5zm-50.965 77.002c.014 0 .028-.002.043-.002h20.944v30h-173.297v-30h152.285c.008 0 .016.002.025.002zm-10.974-15.002h-109.376l18.315-47h72.746zm-79.347-332.5c0 4.143 3.357 7.5 7.5 7.5h34.318c4.143 0 7.5-3.357 7.5-7.5s-3.357-7.5-7.5-7.5h-34.318c-4.143 0-7.5 3.357-7.5 7.5zm39.22-38.91c2.929 2.929 7.677 2.93 10.606.001l4.833-4.833 4.833 4.833c2.929 2.929 7.677 2.928 10.606-.001s2.929-7.678-.001-10.606l-4.832-4.832 4.832-4.832c2.93-2.929 2.93-7.678.001-10.606s-7.678-2.93-10.606-.001l-4.833 4.833-4.833-4.833c-2.928-2.928-7.677-2.929-10.606.001-2.929 2.929-2.929 7.678.001 10.606l4.832 4.832-4.832 4.832c-2.93 2.928-2.93 7.677-.001 10.606zm64.847 219.227h60.538c-.08 11.42-.168 22.582-.255 32.618-.035 4.142 3.293 7.528 7.436 7.564h.065c4.112 0 7.463-3.315 7.499-7.436.032-3.762.141-16.584.255-32.747h9.958c4.143 0 7.5-3.357 7.5-7.5s-3.357-7.5-7.5-7.5h-9.857c.215-34.218.373-74.686-.041-79.651-.638-7.652-5.005-13.821-11.126-15.717-2.859-.886-10.295-1.985-17.549 6.913-7.676 9.418-48.823 83.873-53.49 92.332-1.281 2.323-1.24 5.151.109 7.437 1.349 2.285 3.805 3.687 6.458 3.687zm58.55-93.978c.626-.768 1.158-1.27 1.554-1.581.232.486.469 1.218.547 2.154.333 4.003.223 40.544-.013 78.405h-47.913c17.819-32.081 41.214-73.32 45.825-78.978zm80.542-155.839h-140.427c-13.65-29.485-43.502-50-78.073-50s-64.423 20.515-78.073 50h-62.724c-4.143 0-7.5 3.357-7.5 7.5s3.357 7.5 7.5 7.5h57.401c-1.616 6.413-2.499 13.111-2.579 20h-120.525c-7.995 0-14.5 6.505-14.5 14.5v256c0 7.995 6.505 14.5 14.5 14.5h413c7.995 0 14.5-6.505 14.5-14.5v-256c0-7.995-6.505-14.5-14.5-14.5h-120.525c-.079-6.889-.963-13.587-2.579-20h135.104c12.406 0 22.5 10.094 22.5 22.5v280c0 12.406-10.094 22.5-22.5 22.5h-66.873c-4.143 0-7.5 3.357-7.5 7.5s3.357 7.5 7.5 7.5h66.873c20.678 0 37.5-16.822 37.5-37.5v-280c0-20.678-16.822-37.5-37.5-37.5zm-218.5-35c39.149 0 71 31.851 71 71s-31.851 71-71 71-71-31.851-71-71 31.851-71 71-71zm84.842 85h121.158v255h-412v-255h121.158c6.708 40.783 42.19 72 84.842 72s78.135-31.217 84.842-72zm-164.25 184.817h-9.857c.216-34.218.374-74.686-.04-79.651-.638-7.652-5.005-13.821-11.127-15.717-2.86-.886-10.296-1.985-17.548 6.913-7.676 9.418-48.824 83.873-53.491 92.332-1.281 2.323-1.24 5.151.109 7.437 1.349 2.284 3.805 3.687 6.458 3.687h60.538c-.079 11.421-.167 22.582-.254 32.618-.035 4.142 3.293 7.528 7.436 7.564h.065c4.112 0 7.463-3.315 7.499-7.436.032-3.762.141-16.584.255-32.747h9.957c4.143 0 7.5-3.357 7.5-7.5s-3.358-7.5-7.5-7.5zm-24.859 0h-47.913c17.82-32.081 41.215-73.32 45.826-78.979.626-.768 1.158-1.27 1.554-1.581.232.486.469 1.218.546 2.153.334 4.005.224 40.546-.013 78.407zm104.267-95.965c-24.831 0-45.033 20.334-45.033 45.327v60.494c0 24.993 20.202 45.327 45.033 45.327s45.033-20.334 45.033-45.327v-60.494c0-24.993-20.202-45.327-45.033-45.327zm30.033 105.821c0 16.723-13.472 30.327-30.033 30.327s-30.033-13.604-30.033-30.327v-60.494c0-16.723 13.473-30.327 30.033-30.327s30.033 13.604 30.033 30.327zm-75.472-214.083c2.929 2.929 7.677 2.93 10.606.001l4.833-4.833 4.833 4.833c2.929 2.929 7.677 2.928 10.606-.001s2.929-7.678-.001-10.606l-4.832-4.832 4.832-4.832c2.93-2.929 2.93-7.678.001-10.606s-7.678-2.93-10.606-.001l-4.833 4.833-4.833-4.833c-2.928-2.928-7.677-2.929-10.606.001-2.929 2.929-2.929 7.678.001 10.606l4.832 4.832-4.832 4.832c-2.93 2.928-2.93 7.677-.001 10.606z"/></g></svg>